HIERARCHY
ROOT joint_Root
{
	OFFSET 0.0 0.0 0.0
	CHANNELS 6 Xposition Yposition Zposition Zrotation Xrotation Yrotation 
	JOINT Hips
	{
		OFFSET 4.5925 91.4895 -427.239
		CHANNELS 6 Xposition Yposition Zposition Zrotation Xrotation Yrotation 
		JOINT Spine
		{
			OFFSET 15.7357 0.0 0.0
			CHANNELS 6 Xposition Yposition Zposition Zrotation Xrotation Yrotation 
			JOINT Chest
			{
				OFFSET 8.98455 -0.406207 0.0
				CHANNELS 6 Xposition Yposition Zposition Zrotation Xrotation Yrotation 
				JOINT Neck
				{
					OFFSET 16.3773 0.0 0.0
					CHANNELS 6 Xposition Yposition Zposition Zrotation Xrotation Yrotation 
					JOINT Head
					{
						OFFSET 6.45672 0.0 0.0
						CHANNELS 6 Xposition Yposition Zposition Zrotation Xrotation Yrotation 
						End Site
						{
							OFFSET 0.0 0.0 0.0
						}
					}
				}
				JOINT Shoulder_L
				{
					OFFSET 12.9942 -0.242716 4.98039
					CHANNELS 6 Xposition Yposition Zposition Zrotation Xrotation Yrotation 
					JOINT UpperArm_L
					{
						OFFSET 5.34809 0.0 0.0
						CHANNELS 6 Xposition Yposition Zposition Zrotation Xrotation Yrotation 
						JOINT LowerArm_L
						{
							OFFSET 24.3286 1.87007e-05 0.0
							CHANNELS 6 Xposition Yposition Zposition Zrotation Xrotation Yrotation 
							JOINT Hand_L
							{
								OFFSET 22.2916 0.0 0.0
								CHANNELS 6 Xposition Yposition Zposition Zrotation Xrotation Yrotation 
								End Site
								{
									OFFSET 0.0 0.0 0.0
								}
							}
						}
					}
				}
				JOINT Shoulder_R
				{
					OFFSET 12.9945 -0.242716 -4.98039
					CHANNELS 6 Xposition Yposition Zposition Zrotation Xrotation Yrotation 
					JOINT UpperArm_R
					{
						OFFSET -5.34813 0.0 0.0
						CHANNELS 6 Xposition Yposition Zposition Zrotation Xrotation Yrotation 
						JOINT LowerArm_R
						{
							OFFSET -24.3289 0.000322201 0.0
							CHANNELS 6 Xposition Yposition Zposition Zrotation Xrotation Yrotation 
							JOINT Hand_R
							{
								OFFSET -22.2915 -0.000108084 0.0
								CHANNELS 6 Xposition Yposition Zposition Zrotation Xrotation Yrotation 
								End Site
								{
									OFFSET 0.0 0.0 0.0
								}
							}
						}
					}
				}
			}
		}
		JOINT UpperLeg_L
		{
			OFFSET -2.19248 -6.46944 0.0
			CHANNELS 6 Xposition Yposition Zposition Zrotation Xrotation Yrotation 
			JOINT LowerLeg_L
			{
				OFFSET 39.0811 0.0 -1.23785e-05
				CHANNELS 6 Xposition Yposition Zposition Zrotation Xrotation Yrotation 
				JOINT Foot_L
				{
					OFFSET 40.9854 0.0 -1.26872e-05
					CHANNELS 6 Xposition Yposition Zposition Zrotation Xrotation Yrotation 
					JOINT Toes_L
					{
						OFFSET 11.7543 0.0 0.0
						CHANNELS 6 Xposition Yposition Zposition Zrotation Xrotation Yrotation 
						End Site
						{
							OFFSET 0.0 0.0 0.0
						}
					}
				}
			}
		}
		JOINT UpperLeg_R
		{
			OFFSET -2.19251 6.46944 0.0
			CHANNELS 6 Xposition Yposition Zposition Zrotation Xrotation Yrotation 
			JOINT LowerLeg_R
			{
				OFFSET -39.0811 -0.00228153 -0.0401928
				CHANNELS 6 Xposition Yposition Zposition Zrotation Xrotation Yrotation 
				JOINT Foot_R
				{
					OFFSET -40.9854 0.0 0.0
					CHANNELS 6 Xposition Yposition Zposition Zrotation Xrotation Yrotation 
					JOINT Toes_R
					{
						OFFSET -11.7543 0.0 0.0
						CHANNELS 6 Xposition Yposition Zposition Zrotation Xrotation Yrotation 
						End Site
						{
							OFFSET 0.0 0.0 0.0
						}
					}
				}
			}
		}
	}
}
MOTION
Frames:	7
Frame Time:	0.0333333
0.000000 0.000000 0.000000 0.000000 0.000000 -0.000000 -4.970500 90.992900 -488.097000 91.654800 -8.494470 3.356020 15.735700 0.000005 -0.000001 93.068700 84.746200 -92.587600 8.984550 -0.406207 -0.000000 2.724590 0.540850 0.948306 16.377300 -0.000001 -0.000001 -1.180230 -0.221671 3.793250 6.456720 -0.000001 -0.000000 -6.940100 -0.325859 8.863240 12.994200 -0.242716 4.980390 -90.708000 2.200810 -72.162300 5.348090 -0.000007 -0.000001 -65.103700 40.620000 -13.310700 24.328600 0.000019 0.000005 10.005400 18.029600 -29.692800 22.291600 -0.000001 0.000005 11.082600 5.277310 0.707062 12.994500 -0.242716 -4.980390 88.391600 10.789700 -81.469900 -5.348130 -0.000001 -0.000004 -56.803200 24.569100 -20.307400 -24.328900 0.000322 -0.000009 -0.069264 -0.147519 -24.398100 -22.291500 -0.000108 -0.000004 18.036900 5.374820 -2.133970 -2.192480 -6.469440 -0.000000 -179.092000 -11.885900 -19.387600 39.081100 -0.000007 -0.000012 0.063559 -0.046574 53.765000 40.985400 -0.000006 -0.000013 4.146190 -6.235470 -62.930000 11.754300 -0.000000 0.000003 -0.006518 -0.075482 -19.649200 -2.192510 6.469440 -0.000001 175.821000 17.704500 -179.055000 -39.081100 -0.002282 -0.040193 0.012926 -0.018343 27.673000 -40.985400 0.000008 0.000006 11.640000 16.105300 -75.341800 -11.754300 -0.000006 -0.000006 -0.003451 -0.045601 -18.427800
0.000000 0.000000 0.000000 0.000000 0.000000 -0.000000 -4.910970 90.905800 -485.860000 91.437500 -9.939720 2.849390 15.735700 0.000005 -0.000001 98.521800 84.723700 -98.216200 8.984550 -0.406207 -0.000000 2.666850 1.548770 0.574575 16.377300 -0.000001 -0.000001 -1.493820 -0.452396 3.565830 6.456720 -0.000001 -0.000000 -6.807850 -0.776903 8.434170 12.994200 -0.242716 4.980390 -90.878100 2.698740 -71.970000 5.348090 -0.000007 -0.000001 -68.869300 39.530800 -8.841550 24.328600 0.000019 0.000005 9.046250 22.858900 -22.296500 22.291600 -0.000001 0.000005 9.025780 5.239170 1.719790 12.994500 -0.242716 -4.980390 88.523200 10.325500 -81.815100 -5.348130 -0.000001 -0.000004 -54.724800 25.936000 -24.098900 -24.328900 0.000322 -0.000009 -0.591201 -1.054090 -29.223300 -22.291500 -0.000108 -0.000004 18.635300 5.400630 -2.955550 -2.192480 -6.469440 -0.000000 -179.176000 -11.694900 -20.993300 39.081100 -0.000007 -0.000012 0.047149 -0.045940 45.741900 40.985400 -0.000006 -0.000013 2.942630 -4.983270 -63.172800 11.754300 -0.000000 0.000003 -0.005350 -0.064823 -19.214500 -2.192510 6.469440 -0.000001 174.664000 19.066800 -177.212000 -39.081100 -0.002282 -0.040193 -0.002322 0.011398 26.293900 -40.985400 0.000008 0.000006 11.799000 18.954800 -75.960400 -11.754300 -0.000006 -0.000006 -0.003737 -0.048675 -18.552900
0.000000 0.000000 0.000000 0.000000 0.000000 -0.000000 -4.877700 90.621400 -483.674000 90.842000 -10.611900 2.128790 15.735700 0.000005 -0.000001 101.167000 84.703800 -100.905000 8.984550 -0.406207 -0.000000 2.622800 2.037850 0.475980 16.377300 -0.000001 -0.000001 -1.918960 -0.571690 3.248660 6.456720 -0.000001 -0.000000 -7.101260 -1.126110 7.911830 12.994200 -0.242716 4.980390 -90.985700 2.953430 -71.534600 5.348090 -0.000007 -0.000001 -72.711700 35.937400 -4.781600 24.328600 0.000019 0.000005 6.887290 27.912200 -14.476000 22.291600 -0.000001 0.000005 9.321120 5.161480 3.653130 12.994500 -0.242716 -4.980390 88.654600 9.773910 -82.123500 -5.348130 -0.000001 -0.000004 -52.679000 26.699600 -27.408300 -24.328900 0.000322 -0.000009 -0.722477 -1.068130 -34.045300 -22.291500 -0.000108 -0.000004 19.473800 5.425400 -3.780170 -2.192480 -6.469440 -0.000000 -178.804000 -10.816500 -22.641000 39.081100 -0.000007 -0.000012 0.029459 -0.038220 37.622500 40.985400 -0.000006 -0.000013 2.224160 -3.577170 -63.155000 11.754300 -0.000000 0.000003 -0.003639 -0.047639 -18.514500 -2.192510 6.469440 -0.000001 174.068000 20.242900 -175.855000 -39.081100 -0.002282 -0.040193 -0.017929 0.044334 25.598800 -40.985400 0.000008 0.000006 11.813300 21.025500 -76.509600 -11.754300 -0.000006 -0.000006 -0.005490 -0.066131 -19.264200
0.000000 0.000000 0.000000 0.000000 0.000000 -0.000000 -4.798740 90.168600 -481.198000 90.170800 -11.236300 1.816680 15.735700 0.000005 -0.000001 103.659000 84.478200 -103.424000 8.984550 -0.406207 -0.000000 2.962680 2.595450 0.401942 16.377300 -0.000001 -0.000001 -2.404490 -0.774587 2.862190 6.456720 -0.000001 -0.000000 -7.721160 -1.558200 7.285070 12.994200 -0.242716 4.980390 -90.952800 2.814180 -71.287400 5.348090 -0.000007 -0.000001 -75.650700 29.732500 -1.147000 24.328600 0.000019 0.000005 4.056430 30.201600 -8.025230 22.291600 -0.000001 0.000005 9.928520 5.082730 5.501440 12.994500 -0.242716 -4.980390 88.752700 9.209960 -82.253500 -5.348130 -0.000001 -0.000004 -51.082000 26.805300 -29.891200 -24.328900 0.000322 -0.000009 -0.558531 -0.695539 -38.717900 -22.291500 -0.000108 -0.000004 19.946200 5.440460 -4.300670 -2.192480 -6.469440 -0.000000 -178.234000 -11.174100 -24.000000 39.081100 -0.000007 -0.000012 -0.063457 0.106085 30.886900 40.985400 -0.000006 -0.000013 -0.632031 -0.772330 -62.116800 11.754300 -0.000000 0.000003 -0.004226 -0.053778 -18.764500 -2.192510 6.469440 -0.000001 173.490000 20.322000 -174.430000 -39.081100 -0.002282 -0.040193 -0.032433 0.073722 25.865900 -40.985400 0.000008 0.000006 11.663700 22.170700 -77.112400 -11.754300 -0.000006 -0.000006 -0.008681 -0.093501 -20.381300
0.000000 0.000000 0.000000 0.000000 0.000000 -0.000000 -4.608970 89.649200 -478.454000 89.979500 -11.635100 2.062540 15.735700 0.000005 -0.000001 104.341000 84.030800 -104.285000 8.984550 -0.406207 -0.000000 3.803080 2.951020 0.012786 16.377300 -0.000001 -0.000001 -2.887170 -0.907874 2.455660 6.456720 -0.000001 -0.000000 -8.787420 -1.870890 6.520410 12.994200 -0.242716 4.980390 -90.917200 2.701180 -71.237100 5.348090 -0.000007 -0.000001 -76.977700 23.695000 1.885320 24.328600 0.000019 0.000005 2.011620 30.155200 -3.998740 22.291600 -0.000001 0.000005 9.530300 5.016390 6.970850 12.994500 -0.242716 -4.980390 88.807900 8.911370 -82.348900 -5.348130 -0.000001 -0.000004 -49.787300 26.426600 -31.761400 -24.328900 0.000322 -0.000009 -0.392642 -0.423039 -42.788300 -22.291500 -0.000108 -0.000004 20.331200 5.446820 -4.526000 -2.192480 -6.469440 -0.000000 -179.357000 -12.964100 -26.348100 39.081100 -0.000007 -0.000012 0.031349 -0.056584 28.987200 40.985400 -0.000006 -0.000013 0.529814 2.627440 -59.228100 11.754300 -0.000000 0.000003 -0.003868 -0.050072 -18.613500 -2.192510 6.469440 -0.000001 172.643000 19.038200 -173.087000 -39.081100 -0.002282 -0.040193 -0.038164 0.080553 27.241100 -40.985400 0.000008 0.000006 11.411100 21.820700 -77.492500 -11.754300 -0.000006 -0.000006 -0.014042 -0.131699 -21.945000
0.000000 0.000000 0.000000 0.000000 0.000000 -0.000000 -4.310000 89.071800 -475.308000 89.787900 -12.349800 2.085160 15.735700 0.000005 -0.000001 105.041000 83.588300 -105.142000 8.984550 -0.406207 -0.000000 4.627290 3.324700 -0.335057 16.377300 -0.000001 -0.000001 -3.440520 -0.897887 2.033460 6.456720 -0.000001 -0.000000 -9.833110 -1.932810 5.538420 12.994200 -0.242716 4.980390 -90.959100 2.825960 -71.244200 5.348090 -0.000007 -0.000001 -77.040500 18.981500 4.404920 24.328600 0.000019 0.000005 1.141870 29.667900 -2.305810 22.291600 -0.000001 0.000005 7.532010 5.012320 7.054570 12.994500 -0.242716 -4.980390 88.865000 8.686500 -82.526200 -5.348130 -0.000001 -0.000004 -48.675900 26.112600 -33.374500 -24.328900 0.000322 -0.000009 -0.871601 -0.849019 -45.708800 -22.291500 -0.000108 -0.000004 20.784500 5.456890 -4.887140 -2.192480 -6.469440 -0.000000 179.704000 -14.449400 -28.248500 39.081100 -0.000007 -0.000012 0.049179 -0.083269 30.565800 40.985400 -0.000006 -0.000013 1.712700 4.191700 -58.400700 11.754300 -0.000000 0.000003 -0.003844 -0.049816 -18.603100 -2.192510 6.469440 -0.000001 172.215000 16.334700 -172.310000 -39.081100 -0.002282 -0.040193 -0.029968 0.059612 29.167700 -40.985400 0.000008 0.000006 11.117300 20.336700 -77.343700 -11.754300 -0.000006 -0.000006 -0.025566 -0.196373 -24.608300
0.000000 0.000000 0.000000 0.000000 0.000000 -0.000000 -3.884860 88.472200 -471.600000 89.877200 -13.392200 1.813640 15.735700 0.000005 -0.000001 106.438000 83.522300 -106.778000 8.984550 -0.406207 -0.000000 4.678660 3.668540 -0.830070 16.377300 -0.000001 -0.000001 -3.194820 -0.770748 1.714050 6.456720 -0.000001 -0.000000 -10.436500 -1.764480 4.381130 12.994200 -0.242716 4.980390 -91.069200 3.109740 -71.016100 5.348090 -0.000007 -0.000001 -76.588500 17.894300 7.117690 24.328600 0.000019 0.000005 1.067110 29.733900 -2.150700 22.291600 -0.000001 0.000005 5.455300 5.038420 6.489650 12.994500 -0.242716 -4.980390 88.870000 8.586010 -82.473900 -5.348130 -0.000001 -0.000004 -48.001500 26.851400 -34.058000 -24.328900 0.000322 -0.000009 -1.621590 -1.512050 -46.989400 -22.291500 -0.000108 -0.000004 21.318300 5.467100 -5.261850 -2.192480 -6.469440 -0.000000 179.333000 -14.320800 -29.340800 39.081100 -0.000007 -0.000012 0.019180 -0.027533 34.860600 40.985400 -0.000006 -0.000013 2.332810 4.682500 -56.716700 11.754300 -0.000000 0.000003 -0.003280 -0.043739 -18.355700 -2.192510 6.469440 -0.000001 171.364000 13.505500 -171.879000 -39.081100 -0.002282 -0.040193 -0.018198 0.035124 31.468300 -40.985400 0.000008 0.000006 10.449600 19.436200 -76.717300 -11.754300 -0.000006 -0.000006 -0.043082 -0.272168 -27.762400
